<?xml version="1.0" standalone="no"?><!DOCTYPE svg PUBLIC "-//W3C//DTD SVG 1.1//EN" "http://www.w3.org/Graphics/SVG/1.1/DTD/svg11.dtd"><svg t="1534100589046" class="icon" style="" viewBox="0 0 1151 1024" version="1.1" xmlns="http://www.w3.org/2000/svg" p-id="3260" xmlns:xlink="http://www.w3.org/1999/xlink" width="53.953125" height="48"><defs><style type="text/css"></style></defs><path d="M1138.797862 345.839475c-6.397741 147.148038-70.375149 249.511891-191.932224 371.068967-25.590963 19.193222-44.784186 44.784186-83.17063 70.375148-12.795482 12.795482-70.375149 57.579667-89.568371 76.77289-12.795482 12.795482-38.386445 31.988704-63.977408 51.181926-6.397741 0-6.397741 0-6.397741 6.397741-19.193222 12.795482-38.386445 31.988704-63.977408 44.784186-12.795482 6.397741-25.590963 19.193222-25.590963 19.193222l-25.590964 19.193223-31.988704-19.193223c-6.397741-6.397741-19.193222-12.795482-31.988704-19.193222-25.590963-12.795482-44.784186-31.988704-70.375148-44.784186-6.397741-6.397741-12.795482-6.397741-12.795482-12.795481-25.590963-19.193222-51.181926-38.386445-70.375149-51.181927-19.193222-12.795482-70.375149-63.977408-76.772889-63.977408-31.988704-25.590963-51.181926-44.784186-76.77289-63.977408C76.77289 601.749107 12.795482 492.987514 6.397741 339.441735c-12.795482-319.88704 345.478003-454.239597 563.00119-223.920928 223.920928-230.318669 582.194413-95.966112 569.398931 230.318668z" fill="#ff534d" p-id="3261"></path></svg>