<?xml version="1.0" standalone="no"?><!DOCTYPE svg PUBLIC "-//W3C//DTD SVG 1.1//EN" "http://www.w3.org/Graphics/SVG/1.1/DTD/svg11.dtd"><svg t="1534513788161" class="icon" style="" viewBox="0 0 1024 1024" version="1.1" xmlns="http://www.w3.org/2000/svg" p-id="8024" xmlns:xlink="http://www.w3.org/1999/xlink" width="48" height="48"><defs><style type="text/css"></style></defs><path d="M933.262222 508.586667L192.995556 140.8A37.262222 37.262222 0 0 0 176.355556 136.817778h-3.271112l-0.853333 0.142222h-0.711111l-1.28 0.142222h-0.426667l-1.706666 0.568889a29.297778 29.297778 0 0 0-8.96 3.128889l-1.706667 0.853333a34.702222 34.702222 0 0 0-6.684444 4.551111l-0.142223 0.142223-1.28 1.28-0.426666 0.284444-0.995556 0.995556-0.426667 0.568889a6.115556 6.115556 0 0 0-0.853333 0.995555l-0.711111 0.711111-0.568889 0.711111-0.711111 0.995556-0.426667 0.568889-0.995555 1.28-0.142222 0.284444a10.666667 10.666667 0 0 0-0.995556 1.706667v0.142222a29.866667 29.866667 0 0 0-3.84 8.96l-0.142222 0.284445a39.822222 39.822222 0 0 0-1.848889 9.813333v6.968889l0.142222 1.564444v0.142222a44.515556 44.515556 0 0 0 4.266667 13.368889l2.275555 3.413334L361.671111 546.133333 142.933333 890.737778l-1.706666 3.271111-0.142223 0.284444a16.213333 16.213333 0 0 0-1.422222 2.702223l-0.284444 0.853333-0.853334 2.56-0.426666 0.853333-0.711111 2.702222-0.142223 0.995556-0.568888 2.417778v0.711111a19.342222 19.342222 0 0 0-0.284445 2.844444V914.915556c0 3.271111 0.426667 6.684444 1.422222 9.955555v0.426667a40.96 40.96 0 0 1 0.853334 2.986666l0.284444 0.568889a27.875556 27.875556 0 0 0 2.844445 6.115556v0.142222a50.062222 50.062222 0 0 0 1.706666 2.844445l0.853334 1.137777 1.137777 1.564445 2.275556 2.844444 0.284444 0.142222 1.564445 1.706667c0.426667 0 0.568889 0.142222 0.853333 0.426667a18.062222 18.062222 0 0 0 1.848889 1.564444l0.568889 0.568889 0.995555 0.711111 0.568889 0.426667 0.853334 0.284444 2.275555 1.422223h0.142222a7.964444 7.964444 0 0 0 2.417778 1.28l0.142222 0.142222a28.871111 28.871111 0 0 0 5.546667 1.991111 25.173333 25.173333 0 0 0 5.688889 1.137778l0.284444 0.142222 2.702223 0.142222h0.711111l1.991111-0.142222h0.711111l2.275556-0.142222 1.137777-0.142223 2.133334-0.426666 0.995555-0.142222c0.853333-0.284444 1.422222-0.568889 2.133334-0.568889l0.711111-0.284445a7.111111 7.111111 0 0 0 2.417777-0.853333l0.426667-0.142222a55.466667 55.466667 0 0 1 2.844445-1.28l740.124444-367.786667a41.528889 41.528889 0 0 0 22.755556-37.546667 41.244444 41.244444 0 0 0-22.613334-37.546666z" fill="#28A8A9" p-id="8025"></path></svg>